# xmcd
#
# Track frame offsets: 
#        150
#        44217
#        64566
#        98652
#        132621
#        171791
#        196634
#        224421
#        261897
#
# Disc length: 4025 seconds
#
# Revision: 2
# Processed by: cddbd v1.5.2PL0 Copyright (c) Steve Scherf et al.
# Submitted via: ExactAudioCopy v0.95b4
#
DISCID=850fb709
DTITLE=Billy Hart - Quartet
DYEAR=2005
DGENRE=Jazz
TTITLE0=Mellow B
TTITLE1=Moment's Notice
TTITLE2=Charvez
TTITLE3=Confirmation
TTITLE4=Lorca
TTITLE5=Irah
TTITLE6=Lullaby For Imke
TTITLE7=Iverson's Odyssey
TTITLE8=Neon
EXTD=YEAR: 2005
EXTT0=
EXTT1=
EXTT2=
EXTT3=
EXTT4=
EXTT5=
EXTT6=
EXTT7=
EXTT8=
PLAYORDER=
